# xmcd
#
# Track frame offsets: 
#        150
#        19723
#        28099
#        63937
#        76302
#        96326
#        112444
#        130044
#        146130
#        163754
#        176628
#        187213
#        206261
#        225235
#        239103
#        255739
#
# Disc length: 3744 seconds
#
# Revision: 0
# Processed by: cddbd v1.5.2PL0 Copyright (c) Steve Scherf et al.
# Submitted via: ExactAudioCopy v0.95b4
#
DISCID=e60e9e10
DTITLE=Krüger Brothers - Carolina Scrapbook Vol.2 [CD1]
DYEAR=2005
DGENRE=Bluegrass
TTITLE0=Honey Babe Blues
TTITLE1=Same Old Man
TTITLE2=Cuckoo, Frosty Morn
TTITLE3=Little Sadie
TTITLE4=The Flume
TTITLE5=I Picked Some Wild Mountain Flowers for Mary
TTITLE6=Mist on the High Meadow
TTITLE7=Carolina Blue
TTITLE8=Catfish John
TTITLE9=I'll See You in My Dreams
TTITLE10=Dark Road's a Hard Road to Travel
TTITLE11=Bluestone Mountain
TTITLE12=Summer Wages
TTITLE13=Paper Roses
TTITLE14=The General Store
TTITLE15=Long Black Veil
EXTD=
EXTT0=
EXTT1=
EXTT2=
EXTT3=
EXTT4=
EXTT5=
EXTT6=
EXTT7=
EXTT8=
EXTT9=
EXTT10=
EXTT11=
EXTT12=
EXTT13=
EXTT14=
EXTT15=
PLAYORDER=
